<svg width="184" height="35" viewBox="0 0 184 35" fill="none" xmlns="http://www.w3.org/2000/svg">
<path d="M40 8.75V31.25C40 33.3594 38.2812 35 36.25 35H3.75C1.64062 35 0 33.3594 0 31.25V8.75C0 6.71875 1.64062 5 3.75 5H10.625L11.5625 2.5C12.1094 1.01562 13.5156 0 15.0781 0H24.8438C26.4062 0 27.8125 1.01562 28.3594 2.5L29.375 5H36.25C38.2812 5 40 6.71875 40 8.75ZM29.375 20C29.375 14.8438 25.1562 10.625 20 10.625C14.7656 10.625 10.625 14.8438 10.625 20C10.625 25.2344 14.7656 29.375 20 29.375C25.1562 29.375 29.375 25.2344 29.375 20ZM26.875 20C26.875 23.8281 23.75 26.875 20 26.875C16.1719 26.875 13.125 23.8281 13.125 20C13.125 16.25 16.1719 13.125 20 13.125C23.75 13.125 26.875 16.25 26.875 20Z" fill="#D2C1AF"/>
<path d="M53.28 23.1C52.6 23.1 52.0067 23.0133 51.5 22.84C51.0067 22.6533 50.5067 22.3933 50 22.06L50.94 19.56C51.18 19.7067 51.4067 19.84 51.62 19.96C51.8467 20.0667 52.0933 20.1467 52.36 20.2C52.6267 20.2533 52.9333 20.28 53.28 20.28C53.8267 20.2933 54.2467 20.1533 54.54 19.86C54.8333 19.5667 54.98 19.1 54.98 18.46V11.46H52.18V8.86H58.18V18.46C58.18 19.9533 57.74 21.1 56.86 21.9C55.98 22.7 54.7867 23.1 53.28 23.1Z" fill="#D2C1AF"/>
<path d="M60.9398 22.86V8.86H64.1398V20.06H68.0198V22.86H60.9398Z" fill="#D2C1AF"/>
<path d="M69.9766 22.86V8.86H75.2766C76.6099 8.86 77.6566 9.24 78.4166 10C79.1899 10.76 79.5766 11.8067 79.5766 13.14C79.5766 14.3933 79.1899 15.3933 78.4166 16.14C77.6566 16.8867 76.6099 17.26 75.2766 17.26H73.1566V22.86H69.9766ZM73.1566 14.66H75.2766C75.7166 14.66 76.0566 14.5133 76.2966 14.22C76.5499 13.9133 76.6766 13.5333 76.6766 13.08C76.6766 12.56 76.5499 12.16 76.2966 11.88C76.0566 11.6 75.7166 11.46 75.2766 11.46H73.1566V14.66Z" fill="#D2C1AF"/>
<path d="M81.6281 22.86V7.86H84.5481V13.02C84.8948 12.8333 85.2681 12.6867 85.6681 12.58C86.0681 12.4733 86.5015 12.42 86.9681 12.42C87.5681 12.42 88.1281 12.5333 88.6481 12.76C89.1681 12.9867 89.5881 13.3333 89.9081 13.8C90.2281 14.2533 90.3881 14.8333 90.3881 15.54V22.86H87.3881V16.76C87.3881 16.1867 87.2948 15.7733 87.1081 15.52C86.9215 15.2533 86.5548 15.12 86.0081 15.12C85.4748 15.12 85.0948 15.2533 84.8681 15.52C84.6548 15.7733 84.5481 16.1867 84.5481 16.76V22.86H81.6281Z" fill="#D2C1AF"/>
<path d="M97.2277 23.1C95.9077 23.1 94.8677 22.7667 94.1077 22.1C93.3477 21.42 92.901 20.5733 92.7677 19.56C92.6877 18.92 92.6477 18.3333 92.6477 17.8C92.6477 17.4933 92.6543 17.1933 92.6677 16.9C92.681 16.6067 92.7143 16.2933 92.7677 15.96C92.9143 14.9467 93.361 14.1067 94.1077 13.44C94.8677 12.76 95.9077 12.42 97.2277 12.42C98.5477 12.42 99.5877 12.7533 100.348 13.42C101.121 14.0867 101.574 14.9333 101.708 15.96C101.788 16.6133 101.828 17.2267 101.828 17.8C101.828 18.3333 101.788 18.92 101.708 19.56C101.561 20.5733 101.108 21.42 100.348 22.1C99.5877 22.7667 98.5477 23.1 97.2277 23.1ZM97.2277 20.62C97.7343 20.62 98.121 20.4733 98.3877 20.18C98.6543 19.8733 98.8143 19.52 98.8677 19.12C98.9343 18.6267 98.9677 18.18 98.9677 17.78C98.9677 17.3667 98.941 16.9133 98.8877 16.42C98.8477 15.9933 98.6877 15.6333 98.4077 15.34C98.1277 15.0333 97.7343 14.88 97.2277 14.88C96.7343 14.88 96.3477 15.0333 96.0677 15.34C95.7877 15.6333 95.6277 15.9933 95.5877 16.42C95.5343 16.9133 95.5077 17.3667 95.5077 17.78C95.521 18.18 95.5543 18.62 95.6077 19.1C95.6477 19.5133 95.801 19.8733 96.0677 20.18C96.3477 20.4733 96.7343 20.62 97.2277 20.62Z" fill="#D2C1AF"/>
<path d="M107.254 22.84C106.561 22.84 105.988 22.62 105.534 22.18C105.081 21.7267 104.854 21.1533 104.854 20.46V15.06H103.274V12.66H104.534C104.668 12.66 104.761 12.6267 104.814 12.56C104.881 12.48 104.941 12.32 104.994 12.08C105.048 11.8267 105.121 11.4467 105.214 10.94L105.334 10.26H107.774V12.66H109.434V15.06H107.774V19.94C107.774 20.0333 107.801 20.1133 107.854 20.18C107.921 20.2333 108.001 20.26 108.094 20.26H109.614V22.84H107.254Z" fill="#D2C1AF"/>
<path d="M116.043 23.1C114.723 23.1 113.683 22.7667 112.923 22.1C112.163 21.42 111.717 20.5733 111.583 19.56C111.503 18.92 111.463 18.3333 111.463 17.8C111.463 17.4933 111.47 17.1933 111.483 16.9C111.497 16.6067 111.53 16.2933 111.583 15.96C111.73 14.9467 112.177 14.1067 112.923 13.44C113.683 12.76 114.723 12.42 116.043 12.42C117.363 12.42 118.403 12.7533 119.163 13.42C119.937 14.0867 120.39 14.9333 120.523 15.96C120.603 16.6133 120.643 17.2267 120.643 17.8C120.643 18.3333 120.603 18.92 120.523 19.56C120.377 20.5733 119.923 21.42 119.163 22.1C118.403 22.7667 117.363 23.1 116.043 23.1ZM116.043 20.62C116.55 20.62 116.937 20.4733 117.203 20.18C117.47 19.8733 117.63 19.52 117.683 19.12C117.75 18.6267 117.783 18.18 117.783 17.78C117.783 17.3667 117.757 16.9133 117.703 16.42C117.663 15.9933 117.503 15.6333 117.223 15.34C116.943 15.0333 116.55 14.88 116.043 14.88C115.55 14.88 115.163 15.0333 114.883 15.34C114.603 15.6333 114.443 15.9933 114.403 16.42C114.35 16.9133 114.323 17.3667 114.323 17.78C114.337 18.18 114.37 18.62 114.423 19.1C114.463 19.5133 114.617 19.8733 114.883 20.18C115.163 20.4733 115.55 20.62 116.043 20.62Z" fill="#D2C1AF"/>
<path d="M127.025 27.14C126.532 27.14 126.098 27.1133 125.725 27.06C125.365 27.0067 125.005 26.9133 124.645 26.78C124.298 26.6467 123.885 26.4667 123.405 26.24L124.245 24.08C124.645 24.28 124.972 24.4267 125.225 24.52C125.478 24.6133 125.732 24.6733 125.985 24.7C126.252 24.7267 126.605 24.74 127.045 24.74C127.592 24.74 128.032 24.5867 128.365 24.28C128.712 23.9733 128.885 23.4867 128.885 22.82V22.38C128.885 22.2733 128.845 22.2067 128.765 22.18C128.685 22.14 128.592 22.1533 128.485 22.22L127.145 23C127.025 23.0133 126.892 23.0267 126.745 23.04C126.612 23.0533 126.458 23.06 126.285 23.06C125.312 23.06 124.525 22.7733 123.925 22.2C123.325 21.6267 122.978 20.82 122.885 19.78C122.845 19.3667 122.818 19 122.805 18.68C122.792 18.3467 122.785 18.0267 122.785 17.72C122.785 17.4 122.792 17.08 122.805 16.76C122.818 16.44 122.845 16.0867 122.885 15.7C122.978 14.6467 123.332 13.84 123.945 13.28C124.558 12.7067 125.472 12.42 126.685 12.42C127.112 12.42 127.518 12.5 127.905 12.66C128.305 12.82 128.625 13.0133 128.865 13.24V12.66H131.865V23.34C131.865 23.98 131.672 24.5867 131.285 25.16C130.898 25.7467 130.345 26.22 129.625 26.58C128.905 26.9533 128.038 27.14 127.025 27.14ZM127.325 20.6C127.818 20.6 128.198 20.4733 128.465 20.22C128.732 19.9533 128.865 19.6133 128.865 19.2V16.3C128.865 15.8733 128.745 15.54 128.505 15.3C128.265 15.0467 127.872 14.92 127.325 14.92C126.872 14.92 126.525 15.0333 126.285 15.26C126.045 15.4733 125.912 15.7333 125.885 16.04C125.832 16.6133 125.805 17.1933 125.805 17.78C125.805 18.3533 125.832 18.92 125.885 19.48C125.912 19.7867 126.032 20.0533 126.245 20.28C126.472 20.4933 126.832 20.6 127.325 20.6Z" fill="#D2C1AF"/>
<path d="M134.807 22.86V15.76L133.607 14L136.007 12.42L136.767 13.54C136.834 13.6333 136.907 13.6867 136.987 13.7C137.067 13.7 137.154 13.6533 137.247 13.56C137.594 13.2667 138.034 13.0067 138.567 12.78C139.1 12.54 139.78 12.42 140.607 12.42H140.947V15.06C139.774 15.06 138.94 15.2667 138.447 15.68C137.967 16.08 137.727 16.6667 137.727 17.44V22.86H134.807Z" fill="#D2C1AF"/>
<path d="M148.902 23.1L148.262 22.24C148.115 22.0533 147.962 22.0333 147.802 22.18C147.495 22.42 147.142 22.62 146.742 22.78C146.355 22.94 145.888 23.02 145.342 23.02C144.368 23.02 143.602 22.74 143.042 22.18C142.482 21.6067 142.202 20.8867 142.202 20.02C142.202 19.38 142.355 18.84 142.662 18.4C142.982 17.96 143.408 17.6333 143.942 17.42C144.475 17.1933 145.068 17.08 145.722 17.08H147.462V16.1C147.462 15.6867 147.315 15.3733 147.022 15.16C146.728 14.9467 146.282 14.84 145.682 14.84C145.228 14.84 144.795 14.9133 144.382 15.06C143.968 15.2067 143.555 15.4 143.142 15.64L142.322 13.4C142.842 13.0933 143.402 12.8533 144.002 12.68C144.602 12.5067 145.235 12.42 145.902 12.42C147.355 12.42 148.422 12.7667 149.102 13.46C149.795 14.14 150.142 15.0133 150.142 16.08V20.08L151.202 21.6L148.902 23.1ZM145.982 20.92C146.448 20.92 146.808 20.78 147.062 20.5C147.328 20.2067 147.462 19.8333 147.462 19.38V19.12C147.462 18.9467 147.342 18.8933 147.102 18.96L146.382 19.18H145.762C145.442 19.18 145.202 19.2533 145.042 19.4C144.882 19.5333 144.802 19.7267 144.802 19.98C144.802 20.2333 144.915 20.4533 145.142 20.64C145.368 20.8267 145.648 20.92 145.982 20.92Z" fill="#D2C1AF"/>
<path d="M153.049 26.86V12.66H156.049V13.24C156.289 13.0133 156.603 12.82 156.989 12.66C157.389 12.5 157.803 12.42 158.229 12.42C159.456 12.42 160.369 12.7067 160.969 13.28C161.583 13.84 161.943 14.6467 162.049 15.7C162.089 16.0867 162.116 16.44 162.129 16.76C162.143 17.08 162.149 17.4 162.149 17.72C162.149 18.0267 162.136 18.3467 162.109 18.68C162.096 19 162.076 19.3667 162.049 19.78C161.956 20.82 161.616 21.6267 161.029 22.2C160.456 22.7733 159.589 23.06 158.429 23.06C158.309 23.06 158.189 23.0533 158.069 23.04C157.963 23.0267 157.856 23.0067 157.749 22.98L156.469 22.24C156.336 22.16 156.229 22.14 156.149 22.18C156.083 22.22 156.049 22.2933 156.049 22.4V26.86H153.049ZM157.589 20.58C158.083 20.58 158.443 20.4733 158.669 20.26C158.896 20.0333 159.023 19.7667 159.049 19.46C159.103 18.9 159.129 18.3333 159.129 17.76C159.129 17.1733 159.103 16.6 159.049 16.04C159.023 15.7333 158.889 15.4733 158.649 15.26C158.409 15.0333 158.056 14.92 157.589 14.92C157.056 14.92 156.663 15.0467 156.409 15.3C156.169 15.54 156.049 15.8733 156.049 16.3V19.18C156.049 19.5933 156.183 19.9333 156.449 20.2C156.716 20.4533 157.096 20.58 157.589 20.58Z" fill="#D2C1AF"/>
<path d="M164.703 22.86V7.86H167.623V13.02C167.97 12.8333 168.343 12.6867 168.743 12.58C169.143 12.4733 169.576 12.42 170.043 12.42C170.643 12.42 171.203 12.5333 171.723 12.76C172.243 12.9867 172.663 13.3333 172.983 13.8C173.303 14.2533 173.463 14.8333 173.463 15.54V22.86H170.463V16.76C170.463 16.1867 170.37 15.7733 170.183 15.52C169.996 15.2533 169.63 15.12 169.083 15.12C168.55 15.12 168.17 15.2533 167.943 15.52C167.73 15.7733 167.623 16.1867 167.623 16.76V22.86H164.703Z" fill="#D2C1AF"/>
<path d="M175.792 27.14L175.072 24.6C175.779 24.5333 176.352 24.34 176.792 24.02C177.245 23.7 177.539 23.3 177.672 22.82L177.972 21.74L174.632 12.66H177.692L178.932 17L179.132 18.86C179.145 18.98 179.199 19.04 179.292 19.04C179.399 19.04 179.459 18.98 179.472 18.86L179.692 17L180.692 12.66H183.692L180.392 23.72C180.112 24.7067 179.559 25.5133 178.732 26.14C177.919 26.7667 176.939 27.1 175.792 27.14Z" fill="#D2C1AF"/>
</svg>
