<svg width="153" height="38" viewBox="0 0 153 38" fill="none" xmlns="http://www.w3.org/2000/svg">
<path d="M40 15.7807C40 24.4962 31.0457 22.8821 20 22.8821C8.9543 22.8821 0 24.4962 0 15.7807C0 7.06528 8.9543 0 20 0C31.0457 0 40 7.06528 40 15.7807Z" fill="#CED7E4"/>
<rect x="2" y="26" width="36" height="12" rx="6" fill="#CED7E4"/>
<path d="M50.36 28V14H55.62C56.74 14 57.6733 14.1933 58.42 14.58C59.1667 14.9533 59.72 15.4667 60.08 16.12C60.44 16.7733 60.62 17.52 60.62 18.36C60.62 19.12 60.4467 19.8333 60.1 20.5C59.7533 21.1533 59.2067 21.68 58.46 22.08C57.7267 22.48 56.78 22.68 55.62 22.68H53.06V28H50.36ZM53.06 20.5H55.44C56.3067 20.5 56.9267 20.3067 57.3 19.92C57.6867 19.5333 57.88 19.0133 57.88 18.36C57.88 17.68 57.6867 17.1533 57.3 16.78C56.9267 16.3933 56.3067 16.2 55.44 16.2H53.06V20.5ZM62.6961 28V13.6H65.3961V19.5C65.7294 18.98 66.1761 18.5667 66.7361 18.26C67.2961 17.94 67.9428 17.78 68.6761 17.78C69.5028 17.78 70.2028 17.96 70.7761 18.32C71.3494 18.6667 71.7828 19.18 72.0761 19.86C72.3828 20.5267 72.5361 21.3533 72.5361 22.34V28H69.8561V22.6C69.8561 21.7867 69.6894 21.16 69.3561 20.72C69.0228 20.28 68.4961 20.06 67.7761 20.06C67.3361 20.06 66.9294 20.1667 66.5561 20.38C66.1961 20.5933 65.9094 20.9067 65.6961 21.32C65.4961 21.72 65.3961 22.2133 65.3961 22.8V28H62.6961ZM79.9308 28.24C78.9708 28.24 78.1041 28.02 77.3308 27.58C76.5708 27.1267 75.9641 26.5067 75.5108 25.72C75.0574 24.9333 74.8308 24.0333 74.8308 23.02C74.8308 21.98 75.0574 21.0667 75.5108 20.28C75.9641 19.4933 76.5774 18.88 77.3508 18.44C78.1241 18 78.9841 17.78 79.9308 17.78C80.9041 17.78 81.7774 18 82.5508 18.44C83.3241 18.88 83.9308 19.4933 84.3708 20.28C84.8241 21.0667 85.0508 21.98 85.0508 23.02C85.0508 24.0467 84.8241 24.9533 84.3708 25.74C83.9174 26.5133 83.3041 27.1267 82.5308 27.58C81.7574 28.02 80.8908 28.24 79.9308 28.24ZM79.9308 25.9C80.3708 25.9 80.7641 25.7933 81.1108 25.58C81.4708 25.3667 81.7574 25.0467 81.9708 24.62C82.1841 24.18 82.2908 23.64 82.2908 23C82.2908 22.36 82.1841 21.8267 81.9708 21.4C81.7574 20.9733 81.4708 20.6533 81.1108 20.44C80.7641 20.2267 80.3774 20.12 79.9508 20.12C79.5241 20.12 79.1308 20.2267 78.7708 20.44C78.4108 20.6533 78.1241 20.9733 77.9108 21.4C77.6974 21.8267 77.5908 22.3667 77.5908 23.02C77.5908 23.6467 77.6974 24.18 77.9108 24.62C78.1241 25.0467 78.4041 25.3667 78.7508 25.58C79.1108 25.7933 79.5041 25.9 79.9308 25.9ZM91.6177 28C90.911 28 90.291 27.8933 89.7577 27.68C89.2377 27.4533 88.831 27.0867 88.5377 26.58C88.2443 26.06 88.0977 25.3533 88.0977 24.46V20.28H86.3977V18.02H88.0977L88.3977 15.3H90.7977V18.02H93.4377V20.28H90.7977V24.5C90.7977 24.9533 90.8977 25.2667 91.0977 25.44C91.2977 25.6133 91.6377 25.7 92.1177 25.7H93.3977V28H91.6177ZM100.348 28.24C99.388 28.24 98.5213 28.02 97.748 27.58C96.988 27.1267 96.3813 26.5067 95.928 25.72C95.4746 24.9333 95.248 24.0333 95.248 23.02C95.248 21.98 95.4746 21.0667 95.928 20.28C96.3813 19.4933 96.9946 18.88 97.768 18.44C98.5413 18 99.4013 17.78 100.348 17.78C101.321 17.78 102.195 18 102.968 18.44C103.741 18.88 104.348 19.4933 104.788 20.28C105.241 21.0667 105.468 21.98 105.468 23.02C105.468 24.0467 105.241 24.9533 104.788 25.74C104.335 26.5133 103.721 27.1267 102.948 27.58C102.175 28.02 101.308 28.24 100.348 28.24ZM100.348 25.9C100.788 25.9 101.181 25.7933 101.528 25.58C101.888 25.3667 102.175 25.0467 102.388 24.62C102.601 24.18 102.708 23.64 102.708 23C102.708 22.36 102.601 21.8267 102.388 21.4C102.175 20.9733 101.888 20.6533 101.528 20.44C101.181 20.2267 100.795 20.12 100.368 20.12C99.9413 20.12 99.548 20.2267 99.188 20.44C98.828 20.6533 98.5413 20.9733 98.328 21.4C98.1146 21.8267 98.008 22.3667 98.008 23.02C98.008 23.6467 98.1146 24.18 98.328 24.62C98.5413 25.0467 98.8213 25.3667 99.168 25.58C99.528 25.7933 99.9213 25.9 100.348 25.9ZM107.965 28V14H110.665V25.9H116.805V28H107.965ZM123.5 28.24C122.54 28.24 121.673 28.02 120.9 27.58C120.14 27.1267 119.533 26.5067 119.08 25.72C118.626 24.9333 118.4 24.0333 118.4 23.02C118.4 21.98 118.626 21.0667 119.08 20.28C119.533 19.4933 120.146 18.88 120.92 18.44C121.693 18 122.553 17.78 123.5 17.78C124.473 17.78 125.346 18 126.12 18.44C126.893 18.88 127.5 19.4933 127.94 20.28C128.393 21.0667 128.62 21.98 128.62 23.02C128.62 24.0467 128.393 24.9533 127.94 25.74C127.486 26.5133 126.873 27.1267 126.1 27.58C125.326 28.02 124.46 28.24 123.5 28.24ZM123.5 25.9C123.94 25.9 124.333 25.7933 124.68 25.58C125.04 25.3667 125.326 25.0467 125.54 24.62C125.753 24.18 125.86 23.64 125.86 23C125.86 22.36 125.753 21.8267 125.54 21.4C125.326 20.9733 125.04 20.6533 124.68 20.44C124.333 20.2267 123.946 20.12 123.52 20.12C123.093 20.12 122.7 20.2267 122.34 20.44C121.98 20.6533 121.693 20.9733 121.48 21.4C121.266 21.8267 121.16 22.3667 121.16 23.02C121.16 23.6467 121.266 24.18 121.48 24.62C121.693 25.0467 121.973 25.3667 122.32 25.58C122.68 25.7933 123.073 25.9 123.5 25.9ZM134.753 32.64C133.793 32.64 132.953 32.52 132.233 32.28C131.526 32.0533 130.973 31.7 130.573 31.22C130.186 30.7533 129.993 30.1733 129.993 29.48C129.993 29.0133 130.113 28.5733 130.353 28.16C130.593 27.7467 130.946 27.3733 131.413 27.04C131.879 26.7067 132.453 26.4133 133.133 26.16L134.133 27.5C133.533 27.7 133.099 27.9467 132.833 28.24C132.566 28.5467 132.433 28.8667 132.433 29.2C132.433 29.5067 132.533 29.7667 132.733 29.98C132.946 30.1933 133.226 30.3467 133.573 30.44C133.919 30.5467 134.313 30.6 134.753 30.6C135.166 30.6 135.526 30.5467 135.833 30.44C136.153 30.3333 136.399 30.1733 136.573 29.96C136.746 29.76 136.833 29.5267 136.833 29.26C136.833 28.9 136.706 28.6067 136.453 28.38C136.213 28.1533 135.719 28.0133 134.973 27.96C134.293 27.9067 133.686 27.8333 133.153 27.74C132.633 27.6333 132.173 27.5133 131.773 27.38C131.386 27.2333 131.053 27.0733 130.773 26.9C130.493 26.7267 130.266 26.5533 130.093 26.38V25.92L132.233 23.62L134.153 24.22L131.653 26.72L132.433 25.4C132.566 25.4933 132.699 25.58 132.833 25.66C132.979 25.7267 133.159 25.7867 133.373 25.84C133.586 25.8933 133.859 25.9467 134.193 26C134.539 26.0533 134.973 26.1 135.493 26.14C136.373 26.22 137.093 26.3867 137.653 26.64C138.226 26.8933 138.646 27.2333 138.913 27.66C139.179 28.0733 139.313 28.5867 139.313 29.2C139.313 29.7867 139.146 30.34 138.813 30.86C138.493 31.3933 137.993 31.82 137.313 32.14C136.646 32.4733 135.793 32.64 134.753 32.64ZM134.773 25.06C133.919 25.06 133.186 24.9 132.573 24.58C131.973 24.2467 131.513 23.8067 131.193 23.26C130.873 22.7 130.713 22.0867 130.713 21.42C130.713 20.74 130.873 20.1267 131.193 19.58C131.513 19.0333 131.979 18.6 132.593 18.28C133.206 17.9467 133.933 17.78 134.773 17.78C135.613 17.78 136.333 17.9467 136.933 18.28C137.546 18.6 138.013 19.0333 138.333 19.58C138.653 20.1267 138.813 20.74 138.813 21.42C138.813 22.0867 138.653 22.7 138.333 23.26C138.013 23.8067 137.546 24.2467 136.933 24.58C136.333 24.9 135.613 25.06 134.773 25.06ZM134.773 23C135.279 23 135.693 22.8667 136.013 22.6C136.333 22.32 136.493 21.9267 136.493 21.42C136.493 20.9267 136.333 20.5467 136.013 20.28C135.693 20.0133 135.279 19.88 134.773 19.88C134.253 19.88 133.826 20.0133 133.493 20.28C133.173 20.5467 133.013 20.9267 133.013 21.42C133.013 21.9267 133.173 22.32 133.493 22.6C133.826 22.8667 134.253 23 134.773 23ZM136.413 19.92L135.953 18.02H140.113V19.62L136.413 19.92ZM146.866 28.24C145.906 28.24 145.039 28.02 144.266 27.58C143.506 27.1267 142.899 26.5067 142.446 25.72C141.993 24.9333 141.766 24.0333 141.766 23.02C141.766 21.98 141.993 21.0667 142.446 20.28C142.899 19.4933 143.513 18.88 144.286 18.44C145.059 18 145.919 17.78 146.866 17.78C147.839 17.78 148.713 18 149.486 18.44C150.259 18.88 150.866 19.4933 151.306 20.28C151.759 21.0667 151.986 21.98 151.986 23.02C151.986 24.0467 151.759 24.9533 151.306 25.74C150.853 26.5133 150.239 27.1267 149.466 27.58C148.693 28.02 147.826 28.24 146.866 28.24ZM146.866 25.9C147.306 25.9 147.699 25.7933 148.046 25.58C148.406 25.3667 148.693 25.0467 148.906 24.62C149.119 24.18 149.226 23.64 149.226 23C149.226 22.36 149.119 21.8267 148.906 21.4C148.693 20.9733 148.406 20.6533 148.046 20.44C147.699 20.2267 147.313 20.12 146.886 20.12C146.459 20.12 146.066 20.2267 145.706 20.44C145.346 20.6533 145.059 20.9733 144.846 21.4C144.633 21.8267 144.526 22.3667 144.526 23.02C144.526 23.6467 144.633 24.18 144.846 24.62C145.059 25.0467 145.339 25.3667 145.686 25.58C146.046 25.7933 146.439 25.9 146.866 25.9Z" fill="#7B95B7"/>
</svg>
