<svg width="196" height="62" viewBox="0 0 196 62" fill="none" xmlns="http://www.w3.org/2000/svg">
<g id="JhonnathanL.">
<path d="M2.67288 54.057C2.78153 54.7258 2.97711 55.4054 3.2596 56.0958C3.56383 56.7861 3.96585 57.4118 4.46566 57.9727C4.96546 58.5552 5.58479 59.0298 6.32363 59.3965C7.08421 59.7633 7.97516 59.9467 8.99651 59.9467C10.5611 59.9467 11.865 59.4721 12.908 58.5228C13.9728 57.5736 14.8421 56.2791 15.5157 54.6395C16.2111 52.9999 16.7544 51.0906 17.1455 48.9117C17.5367 46.7111 17.8518 44.3596 18.0908 41.857C17.2868 42.1375 16.4393 42.364 15.5483 42.5366C14.6574 42.7092 13.7229 42.7955 12.7451 42.7955C10.9197 42.7955 9.22468 42.5474 7.66007 42.0512C6.09546 41.555 4.74816 40.8215 3.61816 39.8507C2.48816 38.8798 1.59721 37.6933 0.945285 36.291C0.315095 34.8671 0 33.2383 0 31.4045C0 29.3334 0.336826 27.4673 1.01048 25.8061C1.68413 24.1233 2.57509 22.6132 3.68335 21.2756C4.81335 19.9164 6.10633 18.7191 7.56228 17.6836C9.03997 16.6264 10.572 15.6772 12.1583 14.8358C13.7447 13.9944 15.331 13.2501 16.9173 12.6029C18.5254 11.9557 20.0248 11.3516 21.4156 10.7907C22.0893 8.8275 22.9585 7.2634 24.0233 6.09841C25.0881 4.93342 26.468 4.35093 28.163 4.35093C28.3368 4.35093 28.5433 4.3725 28.7823 4.41565C29.0213 4.4588 29.2495 4.55588 29.4668 4.7069C29.7059 4.83634 29.9014 5.04129 30.0536 5.32175C30.2274 5.58064 30.3143 5.92582 30.3143 6.35729C30.3143 7.06923 30.1079 7.70566 29.695 8.26658C29.2821 8.8275 28.7171 9.34527 28 9.81989C27.2829 10.2729 26.4354 10.7044 25.4575 11.1143C24.4796 11.5242 23.4257 11.9233 22.2957 12.3117C22.0349 14.0807 21.8393 16.0547 21.709 18.2337C21.5786 20.4126 21.4591 22.6995 21.3504 25.0942C21.2635 27.4673 21.1548 29.9051 21.0244 32.4077C20.8941 34.9103 20.7202 37.3589 20.5029 39.7536C21.8719 39.1495 23.0128 38.4484 23.9255 37.6501C24.8382 36.8519 25.6748 36.1184 26.4354 35.4496L26.8917 35.9027C26.631 36.1615 26.2941 36.4851 25.8813 36.8735C25.4901 37.2618 25.012 37.6825 24.447 38.1355C23.9038 38.5886 23.2844 39.0632 22.5891 39.5594C21.9154 40.034 21.1766 40.4763 20.3725 40.8862C20.0683 43.6908 19.6445 46.3444 19.1013 48.847C18.5797 51.3279 17.8518 53.5069 16.9173 55.3838C16.0047 57.2607 14.8529 58.7493 13.4622 59.8496C12.0714 60.9499 10.3655 61.5 8.34459 61.5C7.41017 61.5 6.47575 61.3382 5.54133 61.0146C4.60691 60.691 3.77028 60.2271 3.03143 59.6231C2.29259 59.0406 1.68413 58.3179 1.20605 57.4549C0.749709 56.6135 0.521537 55.6643 0.521537 54.6072C0.521537 54.3483 0.586729 54.111 0.717113 53.8952C0.847497 53.7011 1.01048 53.5285 1.20605 53.3775C1.42336 53.248 1.65153 53.1401 1.89057 53.0538C2.15134 52.9675 2.41211 52.9244 2.67288 52.9244C2.84672 52.9244 2.93364 53.0215 2.93364 53.2156C2.93364 53.3235 2.89018 53.4422 2.80326 53.5716C2.71634 53.7226 2.67288 53.8844 2.67288 54.057ZM13.56 41.0804C15.2984 41.0804 16.8522 40.897 18.2212 40.5302C18.4168 38.1787 18.5689 35.7516 18.6775 33.2491C18.8079 30.7465 18.9492 28.2871 19.1013 25.8708C19.2751 23.4546 19.4924 21.1354 19.7532 18.9133C20.014 16.6696 20.3725 14.6201 20.8289 12.7647C19.4598 13.2178 18.0473 13.7032 16.5914 14.221C15.1354 14.7172 13.7121 15.2889 12.3213 15.9361C10.9305 16.5617 9.60497 17.2844 8.34459 18.1042C7.10594 18.924 6.0194 19.8733 5.08498 20.952C4.15056 22.0307 3.41172 23.2712 2.86845 24.6735C2.32518 26.0542 2.05355 27.6291 2.05355 29.3981C2.05355 31.0809 2.2274 32.5371 2.57509 33.7668C2.92278 34.9966 3.38999 36.0429 3.97672 36.9058C4.58518 37.7688 5.26969 38.4807 6.03027 39.0416C6.81257 39.581 7.62747 40.0017 8.47497 40.3037C9.3442 40.6057 10.2134 40.8107 11.0827 40.9186C11.9519 41.0264 12.7776 41.0804 13.56 41.0804ZM27.4459 5.87188C26.9461 5.87188 26.4571 5.95818 25.979 6.13077C25.501 6.28179 25.0446 6.52988 24.61 6.87507C24.1971 7.22025 23.8168 7.6733 23.4691 8.23422C23.1432 8.77356 22.8824 9.44235 22.6868 10.2406C23.4909 9.91698 24.2297 9.60416 24.9034 9.30212C25.5988 9.00009 26.1855 8.69805 26.6636 8.39602C27.1634 8.09399 27.5437 7.79195 27.8044 7.48992C28.0869 7.18789 28.2282 6.87507 28.2282 6.55146C28.2282 6.42202 28.163 6.28179 28.0326 6.13077C27.9022 5.95818 27.7066 5.87188 27.4459 5.87188Z" fill="#D2C1AF"/>
<path d="M27.674 46.161C27.674 45.6001 27.7066 44.694 27.7718 43.4427C27.837 42.1698 27.9131 40.5626 28 38.621C28.0869 36.6793 28.163 34.4141 28.2282 31.8252C28.2934 29.2363 28.326 26.3347 28.326 23.1202C28.326 21.5453 28.3151 20.0351 28.2934 18.5897C28.2934 17.1226 28.2825 15.8282 28.2608 14.7064C28.239 13.563 28.2173 12.6461 28.1956 11.9557C28.1956 11.2438 28.1956 10.8554 28.1956 10.7907C28.1956 10.6181 28.2173 10.4671 28.2608 10.3377C28.326 10.2082 28.4455 10.0896 28.6193 9.9817C28.7497 9.91698 28.9018 9.83068 29.0757 9.72281C29.2712 9.59337 29.4668 9.52865 29.6624 9.52865C29.9014 9.52865 30.0861 9.59337 30.2165 9.72281C30.3469 9.83068 30.4447 10.0356 30.5099 10.3377C30.5968 10.6181 30.662 11.1143 30.7055 11.8263C30.7489 12.5166 30.7707 13.4874 30.7707 14.7387C30.7924 15.9684 30.8033 17.5649 30.8033 19.5281C30.8033 21.3403 30.7598 23.2172 30.6729 25.1589C30.586 27.1005 30.4773 29.0098 30.3469 30.8867C30.2383 32.7637 30.1079 34.5651 29.9558 36.291C29.8254 38.0169 29.695 39.5702 29.5646 40.9509C29.456 42.3317 29.3582 43.4859 29.2712 44.4135C29.1843 45.3196 29.1409 45.9021 29.1409 46.161C29.1409 46.2689 29.1409 46.3983 29.1409 46.5493C29.1409 46.7004 29.1517 46.8514 29.1735 47.0024C29.1952 47.1318 29.2278 47.2505 29.2712 47.3584C29.3147 47.4446 29.3799 47.4878 29.4668 47.4878C29.6841 47.4878 29.9123 47.1426 30.1513 46.4523C30.3904 45.7619 30.6946 44.8342 31.064 43.6692C31.3031 42.9357 31.5747 42.1914 31.8789 41.4363C32.1832 40.6813 32.4983 40.0017 32.8242 39.3976C33.1719 38.772 33.5196 38.265 33.8673 37.8767C34.2367 37.4883 34.5953 37.2942 34.943 37.2942C35.2037 37.2942 35.421 37.3697 35.5949 37.5207C35.7905 37.6717 35.9534 37.8659 36.0838 38.1032C36.2142 38.3189 36.312 38.5562 36.3772 38.8151C36.4424 39.074 36.4967 39.3221 36.5402 39.5594C36.5619 39.8183 36.5945 40.2066 36.638 40.7244C36.6814 41.2422 36.7249 41.8355 36.7683 42.5042C36.8118 43.173 36.8553 43.8742 36.8987 44.6077C36.9639 45.3412 37.0291 46.0424 37.0943 46.7111C37.2029 47.9193 37.4963 48.793 37.9744 49.3324C38.4525 49.8717 39.0718 50.1414 39.8324 50.1414C40.1366 50.1414 40.3756 50.1198 40.5495 50.0767C40.7233 50.0335 40.8863 50.0119 41.0384 50.0119C41.1471 50.0119 41.1688 50.1198 41.1036 50.3355C41.0601 50.4218 40.8754 50.5729 40.5495 50.7886C40.2235 50.9828 39.6477 51.0798 38.8219 51.0798C38.1265 51.0798 37.5398 50.972 37.0617 50.7562C36.6054 50.5189 36.2359 50.163 35.9534 49.6883C35.6927 49.1921 35.4862 48.5557 35.3341 47.779C35.2037 46.9808 35.1168 46.0316 35.0733 44.9313C35.0299 44.3057 34.9864 43.6584 34.943 42.9897C34.9212 42.2993 34.8669 41.6737 34.78 41.1127C34.7148 40.5518 34.617 40.0988 34.4866 39.7536C34.3562 39.3868 34.1715 39.2034 33.9325 39.2034C33.7369 39.2034 33.5196 39.43 33.2806 39.883C33.0415 40.3145 32.8025 40.8323 32.5634 41.4363C32.3461 42.0188 32.1397 42.6121 31.9441 43.2162C31.7485 43.7987 31.5964 44.2517 31.4878 44.5753C31.4009 44.8342 31.2705 45.2657 31.0966 45.8698C30.9228 46.4738 30.7163 47.0887 30.4773 47.7143C30.2383 48.34 29.9775 48.8901 29.695 49.3647C29.4125 49.8393 29.1191 50.0767 28.8149 50.0767C28.5541 50.0767 28.3477 49.9364 28.1956 49.656C28.0435 49.3539 27.9239 48.998 27.837 48.5881C27.7718 48.1566 27.7284 47.7251 27.7066 47.2936C27.6849 46.8406 27.674 46.463 27.674 46.161Z" fill="#D2C1AF"/>
<path d="M47.1665 49.0411C47.688 49.0411 48.1987 48.9332 48.6985 48.7175C49.1983 48.4802 49.6438 48.1458 50.0349 47.7143C50.4261 47.2613 50.7303 46.7111 50.9476 46.0639C51.1866 45.4167 51.3062 44.6616 51.3062 43.7987C51.3062 43.0867 51.2192 42.4179 51.0454 41.7923C50.8716 41.1451 50.6108 40.5842 50.2631 40.1096C49.9371 39.6349 49.5025 39.2574 48.9593 38.9769C48.4377 38.6965 47.8184 38.5562 47.1013 38.5562C46.6015 38.5562 46.1017 38.6533 45.6019 38.8475C45.1021 39.0201 44.6566 39.3113 44.2654 39.7212C43.8743 40.1096 43.5592 40.6165 43.3201 41.2422C43.0811 41.8462 42.9616 42.5798 42.9616 43.4427C42.9616 44.1331 43.0485 44.8126 43.2224 45.4814C43.3962 46.1286 43.6461 46.7219 43.9721 47.2613C44.3198 47.8006 44.7544 48.2321 45.2759 48.5557C45.8192 48.8793 46.4494 49.0411 47.1665 49.0411ZM46.0256 50.6915C44.5914 50.6915 43.4179 50.2277 42.5052 49.3C41.5925 48.3507 41.1362 46.9808 41.1362 45.1902C41.1362 43.9821 41.3644 42.871 41.8207 41.857C42.2771 40.8215 42.8638 39.937 43.5809 39.2034C44.3198 38.4484 45.1347 37.8659 46.0256 37.456C46.9166 37.0461 47.7858 36.8411 48.6333 36.8411C50.0023 36.8411 51.0997 37.305 51.9255 38.2326C52.7513 39.1603 53.1641 40.5302 53.1641 42.3424C53.1641 43.5506 52.9468 44.6616 52.5122 45.6756C52.0993 46.6896 51.5452 47.5741 50.8498 48.3292C50.1762 49.0627 49.4156 49.6452 48.5681 50.0767C47.7206 50.4866 46.8731 50.6915 46.0256 50.6915Z" fill="#D2C1AF"/>
<path d="M58.021 36.6469C58.1296 36.6469 58.2165 36.7332 58.2817 36.9058C58.3469 37.0784 58.3904 37.2834 58.4121 37.5207C58.4556 37.758 58.4773 38.0169 58.4773 38.2973C58.4773 38.5562 58.4773 38.7935 58.4773 39.0093C58.4773 39.5702 58.4556 40.1527 58.4121 40.7568C58.3904 41.3393 58.3578 41.911 58.3143 42.4719C58.2926 43.0112 58.2709 43.5182 58.2491 43.9928C58.2274 44.4459 58.2165 44.8234 58.2165 45.1255C58.2165 45.6864 58.2383 46.1394 58.2817 46.4846C58.3252 46.8082 58.4338 46.97 58.6077 46.97C58.7163 46.97 58.8576 46.8298 59.0314 46.5493C59.2053 46.2689 59.39 45.9345 59.5856 45.5462C59.8029 45.1362 60.0093 44.7048 60.2049 44.2517C60.4005 43.7987 60.5852 43.3996 60.759 43.0544C60.9763 42.6013 61.2154 42.1051 61.4761 41.5658C61.7586 41.0049 62.052 40.4871 62.3562 40.0125C62.6605 39.5163 62.9756 39.1064 63.3015 38.7828C63.6492 38.4592 64.0078 38.2973 64.3772 38.2973C64.6162 38.2973 64.8227 38.3621 64.9965 38.4915C65.1921 38.621 65.3551 38.7935 65.4854 39.0093C65.6158 39.2034 65.7136 39.4192 65.7788 39.6565C65.8657 39.8722 65.9309 40.0772 65.9744 40.2714C66.0396 40.7676 66.1048 41.555 66.17 42.6337C66.2569 43.6908 66.3655 44.8234 66.4959 46.0316C66.6046 47.2397 66.8979 48.1242 67.376 48.6851C67.8541 49.2245 68.4734 49.4942 69.234 49.4942C69.5382 49.4942 69.7773 49.4726 69.9511 49.4294C70.1467 49.3863 70.3097 49.3647 70.44 49.3647C70.5487 49.3647 70.5704 49.4726 70.5052 49.6883C70.4835 49.7315 70.4292 49.7962 70.3423 49.8825C70.2771 49.9472 70.1575 50.0227 69.9837 50.109C69.8099 50.1953 69.5708 50.2708 69.2666 50.3355C68.9841 50.4003 68.6364 50.4326 68.2235 50.4326C67.5281 50.4326 66.9523 50.3248 66.4959 50.109C66.0396 49.8717 65.6702 49.505 65.3877 49.0088C65.1052 48.5126 64.8987 47.8761 64.7683 47.0995C64.6379 46.3012 64.551 45.352 64.5076 44.2517C64.4641 43.734 64.4206 43.2378 64.3772 42.7631C64.3555 42.2669 64.3011 41.8355 64.2142 41.4687C64.149 41.0804 64.0512 40.7783 63.9208 40.5626C63.7905 40.3253 63.6057 40.2066 63.3667 40.2066C63.1711 40.2066 62.9321 40.4008 62.6496 40.7891C62.3888 41.1775 62.1281 41.6413 61.8673 42.1806C61.6065 42.6984 61.3566 43.2378 61.1176 43.7987C60.9003 44.3596 60.7156 44.8019 60.5634 45.1255C60.0854 46.1394 59.6833 46.97 59.3574 47.6172C59.0532 48.2645 58.7163 48.8901 58.3469 49.4942C58.2383 49.6668 58.1187 49.807 57.9884 49.9149C57.8797 50.0227 57.7385 50.0767 57.5646 50.0767C57.3038 50.0767 57.0974 49.8609 56.9453 49.4294C56.7932 48.998 56.6736 48.5018 56.5867 47.9408C56.5215 47.3799 56.4781 46.819 56.4563 46.2581C56.4346 45.6756 56.4237 45.2333 56.4237 44.9313C56.4237 44.5861 56.4237 44.1654 56.4237 43.6692C56.4455 43.173 56.4672 42.6876 56.4889 42.213C56.5107 41.7384 56.5215 41.3069 56.5215 40.9186C56.5433 40.5302 56.5541 40.2714 56.5541 40.1419C56.5541 40.0125 56.5433 39.8399 56.5215 39.6241C56.5215 39.3868 56.5215 39.1603 56.5215 38.9446C56.5215 38.7072 56.5107 38.5023 56.4889 38.3297C56.4889 38.1355 56.4889 38.0061 56.4889 37.9414C56.4889 37.7688 56.5324 37.6286 56.6193 37.5207C56.728 37.3912 56.8366 37.2942 56.9453 37.2294C57.0539 37.1647 57.2278 37.0569 57.4668 36.9058C57.7059 36.7332 57.8906 36.6469 58.021 36.6469Z" fill="#D2C1AF"/>
<path d="M72.8848 36.6469C72.9934 36.6469 73.0803 36.7332 73.1455 36.9058C73.2107 37.0784 73.2542 37.2834 73.2759 37.5207C73.3194 37.758 73.3411 38.0169 73.3411 38.2973C73.3411 38.5562 73.3411 38.7935 73.3411 39.0093C73.3411 39.5702 73.3194 40.1527 73.2759 40.7568C73.2542 41.3393 73.2216 41.911 73.1781 42.4719C73.1564 43.0112 73.1347 43.5182 73.1129 43.9928C73.0912 44.4459 73.0803 44.8234 73.0803 45.1255C73.0803 45.6864 73.1021 46.1394 73.1455 46.4846C73.189 46.8082 73.2976 46.97 73.4715 46.97C73.5801 46.97 73.7214 46.8298 73.8952 46.5493C74.0691 46.2689 74.2538 45.9345 74.4494 45.5462C74.6667 45.1362 74.8731 44.7048 75.0687 44.2517C75.2643 43.7987 75.449 43.3996 75.6228 43.0544C75.8401 42.6013 76.0792 42.1051 76.3399 41.5658C76.6224 41.0049 76.9158 40.4871 77.22 40.0125C77.5243 39.5163 77.8393 39.1064 78.1653 38.7828C78.513 38.4592 78.8716 38.2973 79.241 38.2973C79.48 38.2973 79.6865 38.3621 79.8603 38.4915C80.0559 38.621 80.2189 38.7935 80.3492 39.0093C80.4796 39.2034 80.5774 39.4192 80.6426 39.6565C80.7295 39.8722 80.7947 40.0772 80.8382 40.2714C80.9034 40.7676 80.9686 41.555 81.0338 42.6337C81.1207 43.6908 81.2293 44.8234 81.3597 46.0316C81.4684 47.2397 81.7617 48.1242 82.2398 48.6851C82.7179 49.2245 83.3372 49.4942 84.0978 49.4942C84.402 49.4942 84.6411 49.4726 84.8149 49.4294C85.0105 49.3863 85.1735 49.3647 85.3038 49.3647C85.4125 49.3647 85.4342 49.4726 85.369 49.6883C85.3473 49.7315 85.293 49.7962 85.2061 49.8825C85.1409 49.9472 85.0213 50.0227 84.8475 50.109C84.6737 50.1953 84.4346 50.2708 84.1304 50.3355C83.8479 50.4003 83.5002 50.4326 83.0873 50.4326C82.3919 50.4326 81.8161 50.3248 81.3597 50.109C80.9034 49.8717 80.534 49.505 80.2514 49.0088C79.969 48.5126 79.7625 47.8761 79.6321 47.0995C79.5017 46.3012 79.4148 45.352 79.3714 44.2517C79.3279 43.734 79.2844 43.2378 79.241 42.7631C79.2192 42.2669 79.1649 41.8355 79.078 41.4687C79.0128 41.0804 78.915 40.7783 78.7846 40.5626C78.6542 40.3253 78.4695 40.2066 78.2305 40.2066C78.0349 40.2066 77.7959 40.4008 77.5134 40.7891C77.2526 41.1775 76.9919 41.6413 76.7311 42.1806C76.4703 42.6984 76.2204 43.2378 75.9814 43.7987C75.7641 44.3596 75.5794 44.8019 75.4272 45.1255C74.9492 46.1394 74.5471 46.97 74.2212 47.6172C73.917 48.2645 73.5801 48.8901 73.2107 49.4942C73.1021 49.6668 72.9825 49.807 72.8521 49.9149C72.7435 50.0227 72.6022 50.0767 72.4284 50.0767C72.1676 50.0767 71.9612 49.8609 71.8091 49.4294C71.657 48.998 71.5374 48.5018 71.4505 47.9408C71.3853 47.3799 71.3419 46.819 71.3201 46.2581C71.2984 45.6756 71.2875 45.2333 71.2875 44.9313C71.2875 44.5861 71.2875 44.1654 71.2875 43.6692C71.3093 43.173 71.331 42.6876 71.3527 42.213C71.3745 41.7384 71.3853 41.3069 71.3853 40.9186C71.4071 40.5302 71.4179 40.2714 71.4179 40.1419C71.4179 40.0125 71.4071 39.8399 71.3853 39.6241C71.3853 39.3868 71.3853 39.1603 71.3853 38.9446C71.3853 38.7072 71.3745 38.5023 71.3527 38.3297C71.3527 38.1355 71.3527 38.0061 71.3527 37.9414C71.3527 37.7688 71.3962 37.6286 71.4831 37.5207C71.5918 37.3912 71.7004 37.2942 71.8091 37.2294C71.9177 37.1647 72.0916 37.0569 72.3306 36.9058C72.5697 36.7332 72.7544 36.6469 72.8848 36.6469Z" fill="#D2C1AF"/>
<path d="M97.0384 39.883C96.8428 39.883 96.6581 39.7752 96.4843 39.5594C96.3322 39.3221 96.1257 39.074 95.865 38.8151C95.6042 38.5562 95.2674 38.3189 94.8545 38.1032C94.4633 37.8659 93.9418 37.7472 93.2899 37.7472C92.3772 37.7472 91.5297 37.9845 90.7474 38.4592C89.9651 38.9122 89.2914 39.4947 88.7264 40.2066C88.1614 40.897 87.716 41.6629 87.39 42.5042C87.0858 43.3241 86.9336 44.1007 86.9336 44.8342C86.9336 45.9776 87.227 46.9161 87.8137 47.6496C88.4005 48.3831 89.1828 48.7499 90.1607 48.7499C90.9212 48.7499 91.584 48.6096 92.149 48.3292C92.7357 48.0271 93.2247 47.6388 93.6158 47.1642C93.4854 46.5817 93.4202 45.859 93.4202 44.996C93.4202 44.0683 93.4854 43.3133 93.6158 42.7308C93.7679 42.1483 93.9418 41.6952 94.1374 41.3716C94.3547 41.048 94.572 40.8323 94.7893 40.7244C95.0066 40.595 95.1913 40.5302 95.3434 40.5302C95.5173 40.5302 95.7128 40.6489 95.9301 40.8862C96.1692 41.1235 96.2887 41.5442 96.2887 42.1483C96.2887 42.9034 96.1475 43.7016 95.865 44.543C95.6042 45.3628 95.2348 46.1502 94.7567 46.9053C95.0175 47.5741 95.4195 48.0595 95.9627 48.3615C96.506 48.6636 97.1253 48.8146 97.8207 48.8146C98.4292 48.8146 98.9942 48.6851 99.5157 48.4263C100.059 48.1458 100.559 47.779 101.015 47.326C101.493 46.8729 101.939 46.3552 102.352 45.7727C102.764 45.1686 103.145 44.5538 103.492 43.9281L103.688 44.0576C103.427 44.8774 103.08 45.6756 102.645 46.4523C102.21 47.2289 101.711 47.9193 101.146 48.5233C100.581 49.1274 99.9612 49.6128 99.2875 49.9796C98.6356 50.3248 97.9511 50.4973 97.234 50.4973C96.6907 50.4973 96.0931 50.3248 95.4412 49.9796C94.811 49.6128 94.2895 48.9656 93.8766 48.0379C93.2029 48.8362 92.4315 49.505 91.5623 50.0443C90.6931 50.5621 89.7586 50.821 88.759 50.821C88.194 50.821 87.6833 50.6915 87.227 50.4326C86.7707 50.1737 86.3795 49.8286 86.0536 49.3971C85.7493 48.9656 85.5103 48.4586 85.3364 47.8761C85.1626 47.2936 85.0757 46.6788 85.0757 46.0316C85.0757 44.9313 85.3147 43.831 85.7928 42.7308C86.2926 41.6305 86.9445 40.6381 87.7485 39.7536C88.5743 38.8691 89.5087 38.1571 90.5518 37.6178C91.6166 37.0569 92.7249 36.7764 93.8766 36.7764C94.7241 36.7764 95.4303 36.8735 95.9953 37.0676C96.5821 37.2402 97.0493 37.456 97.397 37.7149C97.7447 37.9522 97.9946 38.2003 98.1467 38.4592C98.2988 38.718 98.3749 38.923 98.3749 39.074C98.3749 39.376 98.2119 39.5918 97.8859 39.7212C97.5817 39.8291 97.2992 39.883 97.0384 39.883ZM94.3003 44.187C94.3003 44.8989 94.3655 45.5138 94.4959 46.0316C94.8219 45.4275 95.0609 44.8126 95.213 44.187C95.3652 43.5398 95.4412 42.9897 95.4412 42.5366C95.4412 41.9973 95.3434 41.7276 95.1478 41.7276C94.9523 41.7276 94.7567 41.9649 94.5611 42.4395C94.3873 42.9141 94.3003 43.4966 94.3003 44.187Z" fill="#D2C1AF"/>
<path d="M114.38 44.0576C114.227 44.489 113.988 45.0715 113.662 45.805C113.336 46.5386 112.891 47.2613 112.326 47.9732C111.783 48.6636 111.109 49.2569 110.305 49.753C109.523 50.2492 108.61 50.4758 107.567 50.4326C106.633 50.3679 105.85 50.0982 105.22 49.6236C104.59 49.149 104.079 48.4263 103.688 47.4554C103.297 46.463 103.014 45.2225 102.841 43.734C102.667 42.2238 102.58 40.4116 102.58 38.2973C102.58 36.2694 102.634 34.4464 102.743 32.8284C102.851 31.1888 102.993 29.7433 103.166 28.492C102.167 28.5352 101.298 28.5568 100.559 28.5568C99.7982 28.5568 99.2658 28.5568 98.9616 28.5568C98.3314 28.5568 97.7121 28.5136 97.1036 28.4273C96.4734 28.341 95.8867 28.19 95.3434 27.9743C94.8002 27.7585 94.3003 27.4781 93.844 27.1329C93.3877 26.7661 93.0074 26.3131 92.7031 25.7737L92.8335 25.4825C92.8553 25.5256 92.9639 25.6335 93.1595 25.8061C93.3333 25.9571 93.6593 26.1189 94.1374 26.2915C94.6154 26.4641 95.2674 26.6259 96.0931 26.7769C96.9189 26.9064 97.9837 26.9711 99.2875 26.9711H103.362C103.71 25.0294 104.057 23.584 104.405 22.6347C104.775 21.6639 105.024 21.0491 105.155 20.7902C105.329 20.4234 105.579 20.1106 105.905 19.8517C106.252 19.5928 106.546 19.4634 106.785 19.4634C107.241 19.4634 107.61 19.8949 107.893 20.7578C108.175 21.6208 108.317 22.9584 108.317 24.7706C108.317 25.0942 108.306 25.4393 108.284 25.8061C108.262 26.1513 108.251 26.5072 108.251 26.874C109.295 26.8524 110.283 26.8309 111.218 26.8093C112.174 26.7877 113.021 26.7661 113.76 26.7446C114.521 26.723 115.151 26.7014 115.651 26.6798C116.172 26.6583 116.509 26.6367 116.661 26.6151C116.77 26.6151 116.955 26.6043 117.215 26.5828C117.476 26.5612 117.65 26.5504 117.737 26.5504C118.085 26.5504 118.258 26.6583 118.258 26.874C118.258 27.176 118.161 27.4565 117.965 27.7154C117.791 27.9527 117.422 28.0929 116.857 28.1361C116.748 28.1576 116.422 28.1792 115.879 28.2008C115.357 28.2008 114.695 28.2116 113.891 28.2332C113.087 28.2547 112.185 28.2871 111.185 28.3302C110.185 28.3518 109.164 28.3842 108.121 28.4273C107.904 30.2611 107.513 32.2675 106.948 34.4464C106.383 36.6038 105.589 38.923 104.568 41.404C104.655 42.8279 104.775 44.0144 104.927 44.9637C105.101 45.9129 105.329 46.6788 105.611 47.2613C105.894 47.8222 106.241 48.2213 106.654 48.4586C107.089 48.6959 107.6 48.8146 108.186 48.8146C108.816 48.8146 109.403 48.6959 109.946 48.4586C110.49 48.2213 110.979 47.9301 111.413 47.5849C111.87 47.2181 112.261 46.8298 112.587 46.4199C112.934 45.9884 113.217 45.5893 113.434 45.2225C113.673 44.8558 113.847 44.5538 113.956 44.3164C114.086 44.0791 114.162 43.9497 114.184 43.9281L114.38 44.0576ZM106.85 28.4273C106.48 28.4273 106.122 28.4381 105.774 28.4597C105.426 28.4813 105.068 28.492 104.698 28.492C104.633 29.7218 104.579 30.9838 104.536 32.2782C104.514 33.5727 104.503 34.8024 104.503 35.9674V39.6241C105.133 37.6609 105.644 35.7516 106.035 33.8963C106.448 32.0409 106.719 30.2179 106.85 28.4273ZM104.829 26.9711C105.177 26.9711 105.524 26.9603 105.872 26.9387C106.241 26.8956 106.611 26.874 106.98 26.874V25.7737C106.98 24.695 106.948 23.8321 106.882 23.1849C106.817 22.5377 106.741 22.0415 106.654 21.6963C106.589 21.3295 106.502 21.0922 106.393 20.9844C106.307 20.8549 106.23 20.7902 106.165 20.7902C105.991 20.7902 105.839 20.952 105.709 21.2756C105.579 21.5992 105.459 22.0415 105.35 22.6024C105.242 23.1417 105.144 23.7889 105.057 24.544C104.97 25.2991 104.894 26.1081 104.829 26.9711Z" fill="#D2C1AF"/>
<path d="M113.793 46.161C113.793 45.6001 113.825 44.694 113.891 43.4427C113.956 42.1698 114.032 40.5626 114.119 38.621C114.206 36.6793 114.282 34.4141 114.347 31.8252C114.412 29.2363 114.445 26.3347 114.445 23.1202C114.445 21.5453 114.434 20.0351 114.412 18.5897C114.412 17.1226 114.401 15.8282 114.38 14.7064C114.358 13.563 114.336 12.6461 114.314 11.9557C114.314 11.2438 114.314 10.8554 114.314 10.7907C114.314 10.6181 114.336 10.4671 114.38 10.3377C114.445 10.2082 114.564 10.0896 114.738 9.9817C114.868 9.91698 115.021 9.83068 115.194 9.72281C115.39 9.59337 115.586 9.52865 115.781 9.52865C116.02 9.52865 116.205 9.59337 116.335 9.72281C116.466 9.83068 116.563 10.0356 116.629 10.3377C116.716 10.6181 116.781 11.1143 116.824 11.8263C116.868 12.5166 116.889 13.4874 116.889 14.7387C116.911 15.9684 116.922 17.5649 116.922 19.5281C116.922 21.3403 116.879 23.2172 116.792 25.1589C116.705 27.1005 116.596 29.0098 116.466 30.8867C116.357 32.7637 116.227 34.5651 116.075 36.291C115.944 38.0169 115.814 39.5702 115.683 40.9509C115.575 42.3317 115.477 43.4859 115.39 44.4135C115.303 45.3196 115.26 45.9021 115.26 46.161C115.26 46.2689 115.26 46.3983 115.26 46.5493C115.26 46.7004 115.27 46.8514 115.292 47.0024C115.314 47.1318 115.347 47.2505 115.39 47.3584C115.433 47.4446 115.499 47.4878 115.586 47.4878C115.803 47.4878 116.031 47.1426 116.27 46.4523C116.509 45.7619 116.813 44.8342 117.183 43.6692C117.422 42.9357 117.693 42.1914 117.998 41.4363C118.302 40.6813 118.617 40.0017 118.943 39.3976C119.291 38.772 119.638 38.265 119.986 37.8767C120.355 37.4883 120.714 37.2942 121.062 37.2942C121.322 37.2942 121.54 37.3697 121.714 37.5207C121.909 37.6717 122.072 37.8659 122.203 38.1032C122.333 38.3189 122.431 38.5562 122.496 38.8151C122.561 39.074 122.615 39.3221 122.659 39.5594C122.681 39.8183 122.713 40.2066 122.757 40.7244C122.8 41.2422 122.844 41.8355 122.887 42.5042C122.931 43.173 122.974 43.8742 123.017 44.6077C123.083 45.3412 123.148 46.0424 123.213 46.7111C123.322 47.9193 123.615 48.793 124.093 49.3324C124.571 49.8717 125.191 50.1414 125.951 50.1414C126.255 50.1414 126.494 50.1198 126.668 50.0767C126.842 50.0335 127.005 50.0119 127.157 50.0119C127.266 50.0119 127.288 50.1198 127.222 50.3355C127.179 50.4218 126.994 50.5729 126.668 50.7886C126.342 50.9828 125.766 51.0798 124.941 51.0798C124.245 51.0798 123.659 50.972 123.18 50.7562C122.724 50.5189 122.355 50.163 122.072 49.6883C121.811 49.1921 121.605 48.5557 121.453 47.779C121.322 46.9808 121.236 46.0316 121.192 44.9313C121.149 44.3057 121.105 43.6584 121.062 42.9897C121.04 42.2993 120.986 41.6737 120.899 41.1127C120.834 40.5518 120.736 40.0988 120.605 39.7536C120.475 39.3868 120.29 39.2034 120.051 39.2034C119.856 39.2034 119.638 39.43 119.399 39.883C119.16 40.3145 118.921 40.8323 118.682 41.4363C118.465 42.0188 118.258 42.6121 118.063 43.2162C117.867 43.7987 117.715 44.2517 117.607 44.5753C117.52 44.8342 117.389 45.2657 117.215 45.8698C117.042 46.4738 116.835 47.0887 116.596 47.7143C116.357 48.34 116.096 48.8901 115.814 49.3647C115.531 49.8393 115.238 50.0767 114.934 50.0767C114.673 50.0767 114.466 49.9364 114.314 49.656C114.162 49.3539 114.043 48.998 113.956 48.5881C113.891 48.1566 113.847 47.7251 113.825 47.2936C113.804 46.8406 113.793 46.463 113.793 46.161Z" fill="#D2C1AF"/>
<path d="M138.696 39.883C138.501 39.883 138.316 39.7752 138.142 39.5594C137.99 39.3221 137.783 39.074 137.523 38.8151C137.262 38.5562 136.925 38.3189 136.512 38.1032C136.121 37.8659 135.6 37.7472 134.948 37.7472C134.035 37.7472 133.187 37.9845 132.405 38.4592C131.623 38.9122 130.949 39.4947 130.384 40.2066C129.819 40.897 129.374 41.6629 129.048 42.5042C128.743 43.3241 128.591 44.1007 128.591 44.8342C128.591 45.9776 128.885 46.9161 129.471 47.6496C130.058 48.3831 130.841 48.7499 131.818 48.7499C132.579 48.7499 133.242 48.6096 133.807 48.3292C134.393 48.0271 134.882 47.6388 135.274 47.1642C135.143 46.5817 135.078 45.859 135.078 44.996C135.078 44.0683 135.143 43.3133 135.274 42.7308C135.426 42.1483 135.6 41.6952 135.795 41.3716C136.012 41.048 136.23 40.8323 136.447 40.7244C136.664 40.595 136.849 40.5302 137.001 40.5302C137.175 40.5302 137.371 40.6489 137.588 40.8862C137.827 41.1235 137.946 41.5442 137.946 42.1483C137.946 42.9034 137.805 43.7016 137.523 44.543C137.262 45.3628 136.893 46.1502 136.414 46.9053C136.675 47.5741 137.077 48.0595 137.62 48.3615C138.164 48.6636 138.783 48.8146 139.478 48.8146C140.087 48.8146 140.652 48.6851 141.173 48.4263C141.717 48.1458 142.217 47.779 142.673 47.326C143.151 46.8729 143.596 46.3552 144.009 45.7727C144.422 45.1686 144.802 44.5538 145.15 43.9281L145.346 44.0576C145.085 44.8774 144.737 45.6756 144.303 46.4523C143.868 47.2289 143.368 47.9193 142.803 48.5233C142.238 49.1274 141.619 49.6128 140.945 49.9796C140.293 50.3248 139.609 50.4973 138.892 50.4973C138.348 50.4973 137.751 50.3248 137.099 49.9796C136.469 49.6128 135.947 48.9656 135.534 48.0379C134.861 48.8362 134.089 49.505 133.22 50.0443C132.351 50.5621 131.416 50.821 130.417 50.821C129.852 50.821 129.341 50.6915 128.885 50.4326C128.428 50.1737 128.037 49.8286 127.711 49.3971C127.407 48.9656 127.168 48.4586 126.994 47.8761C126.82 47.2936 126.733 46.6788 126.733 46.0316C126.733 44.9313 126.972 43.831 127.451 42.7308C127.95 41.6305 128.602 40.6381 129.406 39.7536C130.232 38.8691 131.166 38.1571 132.21 37.6178C133.274 37.0569 134.383 36.7764 135.534 36.7764C136.382 36.7764 137.088 36.8735 137.653 37.0676C138.24 37.2402 138.707 37.456 139.055 37.7149C139.402 37.9522 139.652 38.2003 139.804 38.4592C139.957 38.718 140.033 38.923 140.033 39.074C140.033 39.376 139.87 39.5918 139.544 39.7212C139.239 39.8291 138.957 39.883 138.696 39.883ZM135.958 44.187C135.958 44.8989 136.023 45.5138 136.154 46.0316C136.48 45.4275 136.719 44.8126 136.871 44.187C137.023 43.5398 137.099 42.9897 137.099 42.5366C137.099 41.9973 137.001 41.7276 136.806 41.7276C136.61 41.7276 136.414 41.9649 136.219 42.4395C136.045 42.9141 135.958 43.4966 135.958 44.187Z" fill="#D2C1AF"/>
<path d="M146.161 36.6469C146.269 36.6469 146.356 36.7332 146.421 36.9058C146.487 37.0784 146.53 37.2834 146.552 37.5207C146.595 37.758 146.617 38.0169 146.617 38.2973C146.617 38.5562 146.617 38.7935 146.617 39.0093C146.617 39.5702 146.595 40.1527 146.552 40.7568C146.53 41.3393 146.497 41.911 146.454 42.4719C146.432 43.0112 146.411 43.5182 146.389 43.9928C146.367 44.4459 146.356 44.8234 146.356 45.1255C146.356 45.6864 146.378 46.1394 146.421 46.4846C146.465 46.8082 146.574 46.97 146.747 46.97C146.856 46.97 146.997 46.8298 147.171 46.5493C147.345 46.2689 147.53 45.9345 147.725 45.5462C147.943 45.1362 148.149 44.7048 148.345 44.2517C148.54 43.7987 148.725 43.3996 148.899 43.0544C149.116 42.6013 149.355 42.1051 149.616 41.5658C149.898 41.0049 150.192 40.4871 150.496 40.0125C150.8 39.5163 151.115 39.1064 151.441 38.7828C151.789 38.4592 152.147 38.2973 152.517 38.2973C152.756 38.2973 152.962 38.3621 153.136 38.4915C153.332 38.621 153.495 38.7935 153.625 39.0093C153.756 39.2034 153.853 39.4192 153.919 39.6565C154.005 39.8722 154.071 40.0772 154.114 40.2714C154.179 40.7676 154.244 41.555 154.31 42.6337C154.397 43.6908 154.505 44.8234 154.636 46.0316C154.744 47.2397 155.038 48.1242 155.516 48.6851C155.994 49.2245 156.613 49.4942 157.374 49.4942C157.678 49.4942 157.917 49.4726 158.091 49.4294C158.286 49.3863 158.449 49.3647 158.58 49.3647C158.688 49.3647 158.71 49.4726 158.645 49.6883C158.623 49.7315 158.569 49.7962 158.482 49.8825C158.417 49.9472 158.297 50.0227 158.123 50.109C157.95 50.1953 157.711 50.2708 157.406 50.3355C157.124 50.4003 156.776 50.4326 156.363 50.4326C155.668 50.4326 155.092 50.3248 154.636 50.109C154.179 49.8717 153.81 49.505 153.527 49.0088C153.245 48.5126 153.038 47.8761 152.908 47.0995C152.778 46.3012 152.691 45.352 152.647 44.2517C152.604 43.734 152.56 43.2378 152.517 42.7631C152.495 42.2669 152.441 41.8355 152.354 41.4687C152.289 41.0804 152.191 40.7783 152.061 40.5626C151.93 40.3253 151.745 40.2066 151.506 40.2066C151.311 40.2066 151.072 40.4008 150.789 40.7891C150.529 41.1775 150.268 41.6413 150.007 42.1806C149.746 42.6984 149.496 43.2378 149.257 43.7987C149.04 44.3596 148.855 44.8019 148.703 45.1255C148.225 46.1394 147.823 46.97 147.497 47.6172C147.193 48.2645 146.856 48.8901 146.487 49.4942C146.378 49.6668 146.258 49.807 146.128 49.9149C146.019 50.0227 145.878 50.0767 145.704 50.0767C145.444 50.0767 145.237 49.8609 145.085 49.4294C144.933 48.998 144.813 48.5018 144.726 47.9408C144.661 47.3799 144.618 46.819 144.596 46.2581C144.574 45.6756 144.563 45.2333 144.563 44.9313C144.563 44.5861 144.563 44.1654 144.563 43.6692C144.585 43.173 144.607 42.6876 144.629 42.213C144.65 41.7384 144.661 41.3069 144.661 40.9186C144.683 40.5302 144.694 40.2714 144.694 40.1419C144.694 40.0125 144.683 39.8399 144.661 39.6241C144.661 39.3868 144.661 39.1603 144.661 38.9446C144.661 38.7072 144.65 38.5023 144.629 38.3297C144.629 38.1355 144.629 38.0061 144.629 37.9414C144.629 37.7688 144.672 37.6286 144.759 37.5207C144.868 37.3912 144.976 37.2942 145.085 37.2294C145.194 37.1647 145.367 37.0569 145.607 36.9058C145.846 36.7332 146.03 36.6469 146.161 36.6469Z" fill="#D2C1AF"/>
<path d="M189.318 20.2077C189.97 19.7762 190.589 19.2584 191.176 18.6544C191.763 18.0503 192.284 17.3815 192.74 16.648C193.197 15.8929 193.555 15.0947 193.816 14.2533C194.077 13.3904 194.207 12.495 194.207 11.5674C194.207 10.1651 193.892 8.90301 193.262 7.78117C192.653 6.63775 191.817 5.67772 190.752 4.90106C189.687 4.10283 188.449 3.49876 187.036 3.08886C185.645 2.65738 184.168 2.44164 182.603 2.44164C180.647 2.44164 178.746 2.71132 176.899 3.25066C175.052 3.76844 173.313 4.50195 171.683 5.45119C170.054 6.40044 168.554 7.54385 167.185 8.88143C165.838 10.219 164.664 11.6968 163.665 13.3149C162.687 14.9329 161.926 16.6696 161.383 18.5249C160.84 20.3803 160.568 22.3111 160.568 24.3175C160.568 25.6982 160.688 27.025 160.927 28.2979C161.166 29.5707 161.459 30.822 161.807 32.0517C162.154 33.2814 162.535 34.5004 162.948 35.7085C163.382 36.8951 163.773 38.0924 164.121 39.3005C164.469 40.5087 164.762 41.7384 165.001 42.9897C165.24 44.2409 165.36 45.5246 165.36 46.8406C165.36 47.1642 165.338 47.4878 165.295 47.8114C165.273 48.135 165.208 48.4478 165.099 48.7499C165.838 49.0303 166.566 49.3647 167.283 49.753C168.022 50.1198 168.739 50.4758 169.434 50.821C170.151 51.1446 170.847 51.425 171.52 51.6623C172.194 51.8996 172.857 52.0183 173.509 52.0183C174.182 52.0183 174.758 51.9212 175.236 51.7271C175.736 51.5545 176.16 51.2956 176.508 50.9504C176.855 50.6052 177.149 50.2061 177.388 49.753C177.648 49.3 177.866 48.793 178.04 48.2321L178.724 48.3615C178.05 50.3463 177.214 51.7486 176.214 52.5684C175.215 53.3882 173.998 53.7981 172.563 53.7981C171.759 53.7981 170.988 53.6795 170.249 53.4422C169.532 53.2264 168.837 52.946 168.163 52.6008C167.511 52.2772 166.881 51.9212 166.272 51.5329C165.664 51.1446 165.077 50.7994 164.512 50.4973C164.099 51.2524 163.567 51.8996 162.915 52.439C162.263 52.9999 161.503 53.2804 160.633 53.2804C159.873 53.2804 159.275 53.0646 158.841 52.6332C158.428 52.2017 158.221 51.7486 158.221 51.274C158.221 50.821 158.33 50.4003 158.547 50.0119C158.764 49.6236 159.047 49.2892 159.395 49.0088C159.764 48.7283 160.166 48.5126 160.601 48.3615C161.057 48.1889 161.513 48.1027 161.97 48.1027C162.687 48.1027 163.437 48.2321 164.219 48.491C164.219 48.3615 164.23 48.2429 164.251 48.135C164.273 48.0056 164.284 47.8869 164.284 47.779C164.284 46.6356 164.132 45.4814 163.828 44.3164C163.545 43.1299 163.176 41.9433 162.719 40.7568C162.285 39.5486 161.807 38.3297 161.285 37.1C160.764 35.8487 160.275 34.5866 159.818 33.3138C159.384 32.0409 159.014 30.7465 158.71 29.4305C158.428 28.0929 158.286 26.7338 158.286 25.3531C158.286 23.2172 158.601 21.1246 159.232 19.0751C159.884 17.0256 160.785 15.0839 161.937 13.2501C163.089 11.3948 164.447 9.69045 166.012 8.13714C167.598 6.58382 169.326 5.24624 171.194 4.1244C173.085 2.98099 175.073 2.09646 177.159 1.47082C179.267 0.823607 181.408 0.5 183.581 0.5C185.624 0.5 187.416 0.758886 188.959 1.27666C190.524 1.79443 191.828 2.50637 192.871 3.41247C193.914 4.31857 194.696 5.38647 195.218 6.61618C195.739 7.84589 196 9.17268 196 10.5966C196 11.6968 195.837 12.7216 195.511 13.6708C195.185 14.5985 194.74 15.4722 194.175 16.292C193.61 17.1118 192.936 17.8777 192.154 18.5897C191.393 19.3016 190.567 19.9704 189.676 20.596L189.318 20.2077ZM161.285 51.5329C161.85 51.5329 162.317 51.3819 162.687 51.0798C163.078 50.7994 163.393 50.4434 163.632 50.0119C163.219 49.8178 162.817 49.656 162.426 49.5265C162.035 49.3755 161.655 49.3 161.285 49.3C160.785 49.3 160.416 49.4294 160.177 49.6883C159.938 49.9472 159.818 50.2169 159.818 50.4973C159.818 50.7994 159.938 51.0475 160.177 51.2416C160.416 51.4358 160.785 51.5329 161.285 51.5329Z" fill="#D2C1AF"/>
<path d="M187.199 46.0963C187.742 46.0963 188.133 46.2905 188.373 46.6788C188.612 47.0455 188.731 47.4986 188.731 48.0379C188.731 48.6636 188.557 49.149 188.21 49.4942C187.862 49.8393 187.438 50.0119 186.938 50.0119C186.569 50.0119 186.21 49.8717 185.863 49.5912C185.515 49.3108 185.341 48.8577 185.341 48.2321C185.341 47.5417 185.515 47.0132 185.863 46.6464C186.21 46.2797 186.656 46.0963 187.199 46.0963Z" fill="#D2C1AF"/>
</g>
</svg>
